%
M48
M72
T01C0.0400
T02C0.1181
%
T01
X5600Y6100
X6600Y6100
X6600Y7100
X5600Y7100
X5600Y8100
X6600Y8100
X12100Y7600
X13100Y7600
X13100Y6600
X12100Y6600
X12100Y8600
X13100Y8600
X13100Y9600
X12100Y9600
X12100Y10600
X13100Y10600
X13100Y11600
X12100Y11600
X12100Y12600
X13100Y12600
X13100Y13600
X12100Y13600
X12100Y14600
X13100Y14600
X13100Y15600
X12100Y15600
X12100Y19600
X13100Y19600
X13100Y20600
X12100Y20600
X12100Y21600
X13100Y21600
X13100Y22600
X12100Y22600
X8100Y22600
X8100Y21600
X8100Y23600
X8100Y24600
X8100Y25600
X8100Y26600
X8100Y27600
X8100Y28600
X12100Y30600
X13100Y30600
X32100Y30600
X32100Y29600
X32100Y28600
X32100Y27600
X32100Y26600
X32100Y25600
X32100Y24600
X32100Y23600
X32100Y22600
X32100Y21600
X33100Y21600
X37600Y23100
X38600Y23100
X39600Y23100
X39600Y25100
X38600Y25100
X37600Y25100
X37600Y27100
X38600Y27100
X39600Y27100
X39600Y29100
X38600Y29100
X37600Y29100
X33100Y28600
X33100Y27600
X33100Y26600
X33100Y25600
X33100Y29600
X33100Y30600
X38317Y20147
X38317Y19147
X38317Y18147
X38100Y14600
X39100Y14600
X39100Y13600
X38100Y13600
X38100Y12600
X39100Y12600
X39100Y11600
X38100Y11600
X37600Y8100
X38600Y8100
X39600Y8100
X39600Y6100
X38600Y6100
X37600Y6100
X37600Y4100
X38600Y4100
X39600Y4100
X34100Y4100
X33100Y4100
X32100Y4100
X30100Y4100
X29100Y4100
X28100Y4100
X26100Y4100
X25100Y4100
X24100Y4100
X32100Y6600
X32100Y7600
X32100Y8600
X32100Y9600
X33100Y9600
X33100Y8600
X33100Y7600
X33100Y6600
X33100Y12600
X33100Y13600
X33100Y14600
X32100Y14600
X32100Y13600
X32100Y12600
X7100Y13100
X6100Y13100
X6100Y14100
X7100Y14100
X7100Y15100
X6100Y15100
X6100Y16100
X7100Y16100
T02
X3600Y22100
X3600Y28100
M30
