G75*
%MOIN*%
%OFA0B0*%
%FSLAX24Y24*%
%IPPOS*%
%LPD*%
%AMOC8*
5,1,8,0,0,1.08239X$1,22.5*
%
%ADD10OC8,0.0600*%
%ADD11C,0.0600*%
D10*
X005600Y006100D03*
X006600Y006100D03*
X006600Y007100D03*
X005600Y007100D03*
X005600Y008100D03*
X006600Y008100D03*
X012100Y007600D03*
X013100Y007600D03*
X013100Y006600D03*
X012100Y006600D03*
X012100Y008600D03*
X013100Y008600D03*
X013100Y009600D03*
X012100Y009600D03*
X012100Y010600D03*
X013100Y010600D03*
X013100Y011600D03*
X012100Y011600D03*
X012100Y012600D03*
X013100Y012600D03*
X013100Y013600D03*
X012100Y013600D03*
X012100Y014600D03*
X013100Y014600D03*
X013100Y015600D03*
X012100Y015600D03*
X012100Y019600D03*
X013100Y019600D03*
X013100Y020600D03*
X012100Y020600D03*
X012100Y021600D03*
X013100Y021600D03*
X013100Y022600D03*
X012100Y022600D03*
X007100Y016100D03*
X006100Y016100D03*
X006100Y015100D03*
X007100Y015100D03*
X007100Y014100D03*
X006100Y014100D03*
X006100Y013100D03*
X007100Y013100D03*
X032100Y012600D03*
X032100Y013600D03*
X032100Y014600D03*
X033100Y014600D03*
X033100Y013600D03*
X033100Y012600D03*
X033100Y009600D03*
X033100Y008600D03*
X033100Y007600D03*
X033100Y006600D03*
X032100Y006600D03*
X032100Y007600D03*
X032100Y008600D03*
X032100Y009600D03*
X038100Y011600D03*
X039100Y011600D03*
X039100Y012600D03*
X038100Y012600D03*
X038100Y013600D03*
X039100Y013600D03*
X039100Y014600D03*
X038100Y014600D03*
X033100Y025600D03*
X033100Y026600D03*
X033100Y027600D03*
X033100Y028600D03*
X033100Y029600D03*
X033100Y030600D03*
X032100Y030600D03*
X032100Y029600D03*
X032100Y028600D03*
X032100Y027600D03*
X032100Y026600D03*
X032100Y025600D03*
D11*
X031800Y024600D02*
X032400Y024600D01*
X032400Y023600D02*
X031800Y023600D01*
X031800Y022600D02*
X032400Y022600D01*
X032100Y021900D02*
X032100Y021300D01*
X033100Y021300D02*
X033100Y021900D01*
X037600Y022800D02*
X037600Y023400D01*
X038600Y023400D02*
X038600Y022800D01*
X039600Y022800D02*
X039600Y023400D01*
X039600Y024800D02*
X039600Y025400D01*
X038600Y025400D02*
X038600Y024800D01*
X037600Y024800D02*
X037600Y025400D01*
X037600Y026800D02*
X037600Y027400D01*
X038600Y027400D02*
X038600Y026800D01*
X039600Y026800D02*
X039600Y027400D01*
X039600Y028800D02*
X039600Y029400D01*
X038600Y029400D02*
X038600Y028800D01*
X037600Y028800D02*
X037600Y029400D01*
X038017Y020147D02*
X038617Y020147D01*
X038617Y019147D02*
X038017Y019147D01*
X038017Y018147D02*
X038617Y018147D01*
X038600Y008400D02*
X038600Y007800D01*
X037600Y007800D02*
X037600Y008400D01*
X039600Y008400D02*
X039600Y007800D01*
X039600Y006400D02*
X039600Y005800D01*
X038600Y005800D02*
X038600Y006400D01*
X037600Y006400D02*
X037600Y005800D01*
X037600Y004400D02*
X037600Y003800D01*
X038600Y003800D02*
X038600Y004400D01*
X039600Y004400D02*
X039600Y003800D01*
X034100Y003800D02*
X034100Y004400D01*
X033100Y004400D02*
X033100Y003800D01*
X032100Y003800D02*
X032100Y004400D01*
X030100Y004400D02*
X030100Y003800D01*
X029100Y003800D02*
X029100Y004400D01*
X028100Y004400D02*
X028100Y003800D01*
X026100Y003800D02*
X026100Y004400D01*
X025100Y004400D02*
X025100Y003800D01*
X024100Y003800D02*
X024100Y004400D01*
X008400Y021600D02*
X007800Y021600D01*
X007800Y022600D02*
X008400Y022600D01*
X008400Y023600D02*
X007800Y023600D01*
X007800Y024600D02*
X008400Y024600D01*
X008400Y025600D02*
X007800Y025600D01*
X007800Y026600D02*
X008400Y026600D01*
X008400Y027600D02*
X007800Y027600D01*
X007800Y028600D02*
X008400Y028600D01*
X012100Y030300D02*
X012100Y030900D01*
X013100Y030900D02*
X013100Y030300D01*
M02*
