G75*
%MOIN*%
%OFA0B0*%
%FSLAX24Y24*%
%IPPOS*%
%LPD*%
%AMOC8*
5,1,8,0,0,1.08239X$1,22.5*
%
%ADD10C,0.0000*%
%ADD11C,0.0050*%
%ADD12C,0.0060*%
D10*
X000100Y000100D02*
X000100Y033600D01*
X044600Y033600D01*
X044600Y000100D01*
X000100Y000100D01*
X003009Y022100D02*
X003011Y022148D01*
X003017Y022196D01*
X003027Y022243D01*
X003040Y022289D01*
X003058Y022334D01*
X003078Y022378D01*
X003103Y022420D01*
X003131Y022459D01*
X003161Y022496D01*
X003195Y022530D01*
X003232Y022562D01*
X003270Y022591D01*
X003311Y022616D01*
X003354Y022638D01*
X003399Y022656D01*
X003445Y022670D01*
X003492Y022681D01*
X003540Y022688D01*
X003588Y022691D01*
X003636Y022690D01*
X003684Y022685D01*
X003732Y022676D01*
X003778Y022664D01*
X003823Y022647D01*
X003867Y022627D01*
X003909Y022604D01*
X003949Y022577D01*
X003987Y022547D01*
X004022Y022514D01*
X004054Y022478D01*
X004084Y022440D01*
X004110Y022399D01*
X004132Y022356D01*
X004152Y022312D01*
X004167Y022267D01*
X004179Y022220D01*
X004187Y022172D01*
X004191Y022124D01*
X004191Y022076D01*
X004187Y022028D01*
X004179Y021980D01*
X004167Y021933D01*
X004152Y021888D01*
X004132Y021844D01*
X004110Y021801D01*
X004084Y021760D01*
X004054Y021722D01*
X004022Y021686D01*
X003987Y021653D01*
X003949Y021623D01*
X003909Y021596D01*
X003867Y021573D01*
X003823Y021553D01*
X003778Y021536D01*
X003732Y021524D01*
X003684Y021515D01*
X003636Y021510D01*
X003588Y021509D01*
X003540Y021512D01*
X003492Y021519D01*
X003445Y021530D01*
X003399Y021544D01*
X003354Y021562D01*
X003311Y021584D01*
X003270Y021609D01*
X003232Y021638D01*
X003195Y021670D01*
X003161Y021704D01*
X003131Y021741D01*
X003103Y021780D01*
X003078Y021822D01*
X003058Y021866D01*
X003040Y021911D01*
X003027Y021957D01*
X003017Y022004D01*
X003011Y022052D01*
X003009Y022100D01*
X003009Y028100D02*
X003011Y028148D01*
X003017Y028196D01*
X003027Y028243D01*
X003040Y028289D01*
X003058Y028334D01*
X003078Y028378D01*
X003103Y028420D01*
X003131Y028459D01*
X003161Y028496D01*
X003195Y028530D01*
X003232Y028562D01*
X003270Y028591D01*
X003311Y028616D01*
X003354Y028638D01*
X003399Y028656D01*
X003445Y028670D01*
X003492Y028681D01*
X003540Y028688D01*
X003588Y028691D01*
X003636Y028690D01*
X003684Y028685D01*
X003732Y028676D01*
X003778Y028664D01*
X003823Y028647D01*
X003867Y028627D01*
X003909Y028604D01*
X003949Y028577D01*
X003987Y028547D01*
X004022Y028514D01*
X004054Y028478D01*
X004084Y028440D01*
X004110Y028399D01*
X004132Y028356D01*
X004152Y028312D01*
X004167Y028267D01*
X004179Y028220D01*
X004187Y028172D01*
X004191Y028124D01*
X004191Y028076D01*
X004187Y028028D01*
X004179Y027980D01*
X004167Y027933D01*
X004152Y027888D01*
X004132Y027844D01*
X004110Y027801D01*
X004084Y027760D01*
X004054Y027722D01*
X004022Y027686D01*
X003987Y027653D01*
X003949Y027623D01*
X003909Y027596D01*
X003867Y027573D01*
X003823Y027553D01*
X003778Y027536D01*
X003732Y027524D01*
X003684Y027515D01*
X003636Y027510D01*
X003588Y027509D01*
X003540Y027512D01*
X003492Y027519D01*
X003445Y027530D01*
X003399Y027544D01*
X003354Y027562D01*
X003311Y027584D01*
X003270Y027609D01*
X003232Y027638D01*
X003195Y027670D01*
X003161Y027704D01*
X003131Y027741D01*
X003103Y027780D01*
X003078Y027822D01*
X003058Y027866D01*
X003040Y027911D01*
X003027Y027957D01*
X003017Y028004D01*
X003011Y028052D01*
X003009Y028100D01*
D11*
X007095Y029480D02*
X007170Y029405D01*
X007320Y029405D01*
X007395Y029480D01*
X007395Y029555D01*
X007320Y029630D01*
X007170Y029630D01*
X007095Y029705D01*
X007095Y029780D01*
X007170Y029855D01*
X007320Y029855D01*
X007395Y029780D01*
X007555Y029855D02*
X007555Y029405D01*
X007856Y029405D01*
X008016Y029405D02*
X008016Y029855D01*
X008316Y029405D01*
X008316Y029855D01*
X008476Y029780D02*
X008476Y029705D01*
X008551Y029630D01*
X008701Y029630D01*
X008776Y029555D01*
X008776Y029480D01*
X008701Y029405D01*
X008551Y029405D01*
X008476Y029480D01*
X008476Y029780D02*
X008551Y029855D01*
X008701Y029855D01*
X008776Y029780D01*
X007856Y029855D02*
X007555Y029855D01*
X007555Y029630D02*
X007706Y029630D01*
X011655Y031345D02*
X011655Y031795D01*
X011880Y031795D01*
X011955Y031720D01*
X011955Y031570D01*
X011880Y031495D01*
X011655Y031495D01*
X011805Y031495D02*
X011955Y031345D01*
X012115Y031345D02*
X012266Y031345D01*
X012190Y031345D02*
X012190Y031795D01*
X012115Y031795D02*
X012266Y031795D01*
X012422Y031720D02*
X012422Y031420D01*
X012497Y031345D01*
X012648Y031345D01*
X012723Y031420D01*
X012723Y031570D01*
X012572Y031570D01*
X012422Y031720D02*
X012497Y031795D01*
X012648Y031795D01*
X012723Y031720D01*
X012883Y031795D02*
X012883Y031345D01*
X012883Y031570D02*
X013183Y031570D01*
X013183Y031795D02*
X013183Y031345D01*
X013493Y031345D02*
X013493Y031795D01*
X013343Y031795D02*
X013643Y031795D01*
X013803Y031645D02*
X013954Y031795D01*
X013954Y031345D01*
X014104Y031345D02*
X013803Y031345D01*
X013736Y024325D02*
X013585Y024325D01*
X013660Y024325D02*
X013660Y023875D01*
X013585Y023875D02*
X013736Y023875D01*
X013892Y023950D02*
X013967Y023875D01*
X014118Y023875D01*
X014193Y023950D01*
X014193Y024100D01*
X014042Y024100D01*
X013892Y024250D02*
X013892Y023950D01*
X013892Y024250D02*
X013967Y024325D01*
X014118Y024325D01*
X014193Y024250D01*
X014353Y024325D02*
X014353Y023875D01*
X014353Y024100D02*
X014653Y024100D01*
X014653Y024325D02*
X014653Y023875D01*
X014963Y023875D02*
X014963Y024325D01*
X014813Y024325D02*
X015113Y024325D01*
X015273Y024250D02*
X015349Y024325D01*
X015499Y024325D01*
X015574Y024250D01*
X015574Y024175D01*
X015273Y023875D01*
X015574Y023875D01*
X013425Y023875D02*
X013275Y024025D01*
X013350Y024025D02*
X013125Y024025D01*
X013125Y023875D02*
X013125Y024325D01*
X013350Y024325D01*
X013425Y024250D01*
X013425Y024100D01*
X013350Y024025D01*
X013350Y017325D02*
X013425Y017250D01*
X013425Y017100D01*
X013350Y017025D01*
X013125Y017025D01*
X013125Y016875D02*
X013125Y017325D01*
X013350Y017325D01*
X013585Y017325D02*
X013736Y017325D01*
X013660Y017325D02*
X013660Y016875D01*
X013585Y016875D02*
X013736Y016875D01*
X013892Y016950D02*
X013892Y017250D01*
X013967Y017325D01*
X014118Y017325D01*
X014193Y017250D01*
X014193Y017100D02*
X014042Y017100D01*
X014193Y017100D02*
X014193Y016950D01*
X014118Y016875D01*
X013967Y016875D01*
X013892Y016950D01*
X014353Y016875D02*
X014353Y017325D01*
X014353Y017100D02*
X014653Y017100D01*
X014653Y017325D02*
X014653Y016875D01*
X014963Y016875D02*
X014963Y017325D01*
X014813Y017325D02*
X015113Y017325D01*
X015273Y017250D02*
X015349Y017325D01*
X015499Y017325D01*
X015574Y017250D01*
X015574Y017175D01*
X015499Y017100D01*
X015574Y017025D01*
X015574Y016950D01*
X015499Y016875D01*
X015349Y016875D01*
X015273Y016950D01*
X015424Y017100D02*
X015499Y017100D01*
X013425Y016875D02*
X013275Y017025D01*
X009455Y016875D02*
X009155Y016875D01*
X009305Y016875D02*
X009305Y017325D01*
X009155Y017175D01*
X008995Y017250D02*
X008995Y016950D01*
X008919Y016875D01*
X008694Y016875D01*
X008694Y017325D01*
X008919Y017325D01*
X008995Y017250D01*
X008534Y017175D02*
X008534Y016875D01*
X008534Y017100D02*
X008234Y017100D01*
X008234Y017175D02*
X008384Y017325D01*
X008534Y017175D01*
X008234Y017175D02*
X008234Y016875D01*
X008074Y016875D02*
X007773Y016875D01*
X007773Y017325D01*
X008074Y017325D01*
X007924Y017100D02*
X007773Y017100D01*
X007613Y017100D02*
X007313Y017100D01*
X007313Y016875D02*
X007313Y017325D01*
X007613Y017325D02*
X007613Y016875D01*
X007153Y016800D02*
X006853Y016800D01*
X006696Y016875D02*
X006546Y016875D01*
X006621Y016875D02*
X006621Y017325D01*
X006546Y017325D02*
X006696Y017325D01*
X006386Y017250D02*
X006386Y017100D01*
X006311Y017025D01*
X006085Y017025D01*
X006085Y016875D02*
X006085Y017325D01*
X006311Y017325D01*
X006386Y017250D01*
X005925Y017250D02*
X005850Y017325D01*
X005700Y017325D01*
X005625Y017250D01*
X005625Y017175D01*
X005700Y017100D01*
X005850Y017100D01*
X005925Y017025D01*
X005925Y016950D01*
X005850Y016875D01*
X005700Y016875D01*
X005625Y016950D01*
X005657Y009325D02*
X005507Y009325D01*
X005432Y009250D01*
X005275Y009325D02*
X005125Y009325D01*
X005200Y009325D02*
X005200Y008875D01*
X005125Y008875D02*
X005275Y008875D01*
X005432Y008875D02*
X005732Y009175D01*
X005732Y009250D01*
X005657Y009325D01*
X005892Y009250D02*
X005892Y008950D01*
X005967Y008875D01*
X006118Y008875D01*
X006193Y008950D01*
X006353Y008800D02*
X006653Y008800D01*
X006813Y008875D02*
X006813Y009325D01*
X006813Y009100D02*
X007113Y009100D01*
X007273Y009100D02*
X007424Y009100D01*
X007273Y008875D02*
X007574Y008875D01*
X007734Y008875D02*
X007734Y009175D01*
X007884Y009325D01*
X008034Y009175D01*
X008034Y008875D01*
X008194Y008875D02*
X008194Y009325D01*
X008419Y009325D01*
X008495Y009250D01*
X008495Y008950D01*
X008419Y008875D01*
X008194Y008875D01*
X008034Y009100D02*
X007734Y009100D01*
X007574Y009325D02*
X007273Y009325D01*
X007273Y008875D01*
X007113Y008875D02*
X007113Y009325D01*
X006193Y009250D02*
X006118Y009325D01*
X005967Y009325D01*
X005892Y009250D01*
X005732Y008875D02*
X005432Y008875D01*
X024253Y003355D02*
X024253Y002905D01*
X024554Y002905D01*
X024714Y002980D02*
X024789Y002905D01*
X024939Y002905D01*
X025014Y002980D01*
X025014Y003055D01*
X024939Y003130D01*
X024789Y003130D01*
X024714Y003205D01*
X024714Y003280D01*
X024789Y003355D01*
X024939Y003355D01*
X025014Y003280D01*
X025174Y003280D02*
X025174Y002980D01*
X025249Y002905D01*
X025399Y002905D01*
X025474Y002980D01*
X025635Y002980D02*
X025635Y003130D01*
X025860Y003130D01*
X025935Y003055D01*
X025935Y002980D01*
X025860Y002905D01*
X025710Y002905D01*
X025635Y002980D01*
X025635Y003130D02*
X025785Y003280D01*
X025935Y003355D01*
X025474Y003280D02*
X025399Y003355D01*
X025249Y003355D01*
X025174Y003280D01*
X024554Y003355D02*
X024253Y003355D01*
X024253Y003130D02*
X024404Y003130D01*
X028753Y003130D02*
X028904Y003130D01*
X028753Y002905D02*
X029054Y002905D01*
X029214Y002980D02*
X029289Y002905D01*
X029439Y002905D01*
X029514Y002980D01*
X029514Y003055D01*
X029439Y003130D01*
X029289Y003130D01*
X029214Y003205D01*
X029214Y003280D01*
X029289Y003355D01*
X029439Y003355D01*
X029514Y003280D01*
X029674Y003280D02*
X029674Y002980D01*
X029749Y002905D01*
X029899Y002905D01*
X029974Y002980D01*
X030135Y002980D02*
X030135Y003055D01*
X030210Y003130D01*
X030360Y003130D01*
X030435Y003055D01*
X030435Y002980D01*
X030360Y002905D01*
X030210Y002905D01*
X030135Y002980D01*
X030210Y003130D02*
X030135Y003205D01*
X030135Y003280D01*
X030210Y003355D01*
X030360Y003355D01*
X030435Y003280D01*
X030435Y003205D01*
X030360Y003130D01*
X029974Y003280D02*
X029899Y003355D01*
X029749Y003355D01*
X029674Y003280D01*
X029054Y003355D02*
X028753Y003355D01*
X028753Y002905D01*
X032293Y002905D02*
X032593Y002905D01*
X032753Y002980D02*
X032828Y002905D01*
X032979Y002905D01*
X033054Y002980D01*
X033054Y003055D01*
X032979Y003130D01*
X032828Y003130D01*
X032753Y003205D01*
X032753Y003280D01*
X032828Y003355D01*
X032979Y003355D01*
X033054Y003280D01*
X033214Y003280D02*
X033214Y002980D01*
X033289Y002905D01*
X033439Y002905D01*
X033514Y002980D01*
X033674Y002905D02*
X033974Y002905D01*
X033824Y002905D02*
X033824Y003355D01*
X033674Y003205D01*
X033514Y003280D02*
X033439Y003355D01*
X033289Y003355D01*
X033214Y003280D01*
X032593Y003355D02*
X032293Y003355D01*
X032293Y002905D01*
X032293Y003130D02*
X032443Y003130D01*
X034135Y002980D02*
X034435Y003280D01*
X034435Y002980D01*
X034360Y002905D01*
X034210Y002905D01*
X034135Y002980D01*
X034135Y003280D01*
X034210Y003355D01*
X034360Y003355D01*
X034435Y003280D01*
X037753Y003355D02*
X037753Y002905D01*
X038054Y002905D01*
X038214Y002980D02*
X038289Y002905D01*
X038439Y002905D01*
X038514Y002980D01*
X038514Y003055D01*
X038439Y003130D01*
X038289Y003130D01*
X038214Y003205D01*
X038214Y003280D01*
X038289Y003355D01*
X038439Y003355D01*
X038514Y003280D01*
X038674Y003280D02*
X038674Y002980D01*
X038749Y002905D01*
X038899Y002905D01*
X038974Y002980D01*
X039135Y002980D02*
X039210Y002905D01*
X039360Y002905D01*
X039435Y002980D01*
X039435Y003280D01*
X039360Y003355D01*
X039210Y003355D01*
X039135Y003280D01*
X039135Y003205D01*
X039210Y003130D01*
X039435Y003130D01*
X038974Y003280D02*
X038899Y003355D01*
X038749Y003355D01*
X038674Y003280D01*
X038054Y003355D02*
X037753Y003355D01*
X037753Y003130D02*
X037904Y003130D01*
X037753Y004905D02*
X038054Y004905D01*
X038214Y004980D02*
X038289Y004905D01*
X038439Y004905D01*
X038514Y004980D01*
X038514Y005055D01*
X038439Y005130D01*
X038289Y005130D01*
X038214Y005205D01*
X038214Y005280D01*
X038289Y005355D01*
X038439Y005355D01*
X038514Y005280D01*
X038674Y005280D02*
X038674Y004980D01*
X038749Y004905D01*
X038899Y004905D01*
X038974Y004980D01*
X039135Y004980D02*
X039135Y004905D01*
X039135Y004980D02*
X039435Y005280D01*
X039435Y005355D01*
X039135Y005355D01*
X038974Y005280D02*
X038899Y005355D01*
X038749Y005355D01*
X038674Y005280D01*
X038054Y005355D02*
X037753Y005355D01*
X037753Y004905D01*
X037753Y005130D02*
X037904Y005130D01*
X037753Y006905D02*
X038054Y006905D01*
X038214Y006980D02*
X038289Y006905D01*
X038439Y006905D01*
X038514Y006980D01*
X038514Y007055D01*
X038439Y007130D01*
X038289Y007130D01*
X038214Y007205D01*
X038214Y007280D01*
X038289Y007355D01*
X038439Y007355D01*
X038514Y007280D01*
X038674Y007280D02*
X038674Y006980D01*
X038749Y006905D01*
X038899Y006905D01*
X038974Y006980D01*
X039135Y006980D02*
X039210Y006905D01*
X039360Y006905D01*
X039435Y006980D01*
X039435Y007130D01*
X039360Y007205D01*
X039285Y007205D01*
X039135Y007130D01*
X039135Y007355D01*
X039435Y007355D01*
X038974Y007280D02*
X038899Y007355D01*
X038749Y007355D01*
X038674Y007280D01*
X038054Y007355D02*
X037753Y007355D01*
X037753Y006905D01*
X037753Y007130D02*
X037904Y007130D01*
X033767Y010450D02*
X033692Y010375D01*
X033542Y010375D01*
X033467Y010450D01*
X033467Y010600D02*
X033617Y010675D01*
X033692Y010675D01*
X033767Y010600D01*
X033767Y010450D01*
X033467Y010600D02*
X033467Y010825D01*
X033767Y010825D01*
X033306Y010825D02*
X033006Y010825D01*
X033156Y010825D02*
X033156Y010375D01*
X032696Y010600D02*
X032546Y010600D01*
X032546Y010375D02*
X032546Y010825D01*
X032846Y010825D01*
X032386Y010825D02*
X032085Y010825D01*
X032085Y010375D01*
X032386Y010375D01*
X032236Y010600D02*
X032085Y010600D01*
X031925Y010375D02*
X031625Y010375D01*
X031625Y010825D01*
X031625Y015375D02*
X031925Y015375D01*
X032085Y015375D02*
X032386Y015375D01*
X032546Y015375D02*
X032546Y015825D01*
X032846Y015825D01*
X033006Y015825D02*
X033306Y015825D01*
X033156Y015825D02*
X033156Y015375D01*
X033467Y015600D02*
X033767Y015600D01*
X033692Y015375D02*
X033692Y015825D01*
X033467Y015600D01*
X032696Y015600D02*
X032546Y015600D01*
X032386Y015825D02*
X032085Y015825D01*
X032085Y015375D01*
X032085Y015600D02*
X032236Y015600D01*
X031625Y015825D02*
X031625Y015375D01*
X037548Y021197D02*
X037623Y021122D01*
X037773Y021122D01*
X037848Y021197D01*
X037848Y021572D01*
X038008Y021422D02*
X038158Y021572D01*
X038308Y021422D01*
X038308Y021122D01*
X038469Y021122D02*
X038469Y021572D01*
X038694Y021572D01*
X038769Y021497D01*
X038769Y021347D01*
X038694Y021272D01*
X038469Y021272D01*
X038619Y021272D02*
X038769Y021122D01*
X039079Y021122D02*
X039079Y021572D01*
X038929Y021572D02*
X039229Y021572D01*
X039389Y021422D02*
X039539Y021572D01*
X039539Y021122D01*
X039389Y021122D02*
X039690Y021122D01*
X039860Y021905D02*
X039860Y022355D01*
X039635Y022130D01*
X039935Y022130D01*
X039474Y021980D02*
X039399Y021905D01*
X039249Y021905D01*
X039174Y021980D01*
X039174Y022280D01*
X039249Y022355D01*
X039399Y022355D01*
X039474Y022280D01*
X039014Y022280D02*
X038939Y022355D01*
X038789Y022355D01*
X038714Y022280D01*
X038714Y022205D01*
X038789Y022130D01*
X038939Y022130D01*
X039014Y022055D01*
X039014Y021980D01*
X038939Y021905D01*
X038789Y021905D01*
X038714Y021980D01*
X038554Y021905D02*
X038253Y021905D01*
X038253Y022355D01*
X038554Y022355D01*
X038404Y022130D02*
X038253Y022130D01*
X038008Y021422D02*
X038008Y021122D01*
X038008Y021347D02*
X038308Y021347D01*
X037548Y021197D02*
X037548Y021572D01*
X035797Y022420D02*
X035722Y022345D01*
X035572Y022345D01*
X035497Y022420D01*
X035647Y022570D02*
X035722Y022570D01*
X035797Y022495D01*
X035797Y022420D01*
X035722Y022570D02*
X035797Y022645D01*
X035797Y022720D01*
X035722Y022795D01*
X035572Y022795D01*
X035497Y022720D01*
X035336Y022795D02*
X035036Y022795D01*
X035186Y022795D02*
X035186Y022345D01*
X034726Y022570D02*
X034576Y022570D01*
X034576Y022345D02*
X034576Y022795D01*
X034876Y022795D01*
X034416Y022795D02*
X034115Y022795D01*
X034115Y022345D01*
X034416Y022345D01*
X034266Y022570D02*
X034115Y022570D01*
X033955Y022345D02*
X033655Y022345D01*
X033655Y022795D01*
X033595Y024405D02*
X033895Y024405D01*
X034055Y024405D02*
X034055Y024855D01*
X034356Y024855D01*
X034516Y024855D02*
X034516Y024405D01*
X034356Y024405D02*
X034055Y024405D01*
X034055Y024630D02*
X034206Y024630D01*
X034516Y024630D02*
X034666Y024630D01*
X034516Y024855D02*
X034816Y024855D01*
X034976Y024855D02*
X035276Y024855D01*
X035126Y024855D02*
X035126Y024405D01*
X035437Y024405D02*
X035737Y024705D01*
X035737Y024780D01*
X035662Y024855D01*
X035512Y024855D01*
X035437Y024780D01*
X035437Y024405D02*
X035737Y024405D01*
X033595Y024405D02*
X033595Y024855D01*
X038253Y024355D02*
X038253Y023905D01*
X038554Y023905D01*
X038714Y023980D02*
X038789Y023905D01*
X038939Y023905D01*
X039014Y023980D01*
X039014Y024055D01*
X038939Y024130D01*
X038789Y024130D01*
X038714Y024205D01*
X038714Y024280D01*
X038789Y024355D01*
X038939Y024355D01*
X039014Y024280D01*
X039174Y024280D02*
X039174Y023980D01*
X039249Y023905D01*
X039399Y023905D01*
X039474Y023980D01*
X039635Y023980D02*
X039710Y023905D01*
X039860Y023905D01*
X039935Y023980D01*
X039935Y024055D01*
X039860Y024130D01*
X039785Y024130D01*
X039860Y024130D02*
X039935Y024205D01*
X039935Y024280D01*
X039860Y024355D01*
X039710Y024355D01*
X039635Y024280D01*
X039474Y024280D02*
X039399Y024355D01*
X039249Y024355D01*
X039174Y024280D01*
X038554Y024355D02*
X038253Y024355D01*
X038253Y024130D02*
X038404Y024130D01*
X038253Y025905D02*
X038554Y025905D01*
X038714Y025980D02*
X038789Y025905D01*
X038939Y025905D01*
X039014Y025980D01*
X039014Y026055D01*
X038939Y026130D01*
X038789Y026130D01*
X038714Y026205D01*
X038714Y026280D01*
X038789Y026355D01*
X038939Y026355D01*
X039014Y026280D01*
X039174Y026280D02*
X039174Y025980D01*
X039249Y025905D01*
X039399Y025905D01*
X039474Y025980D01*
X039635Y025905D02*
X039935Y026205D01*
X039935Y026280D01*
X039860Y026355D01*
X039710Y026355D01*
X039635Y026280D01*
X039474Y026280D02*
X039399Y026355D01*
X039249Y026355D01*
X039174Y026280D01*
X039635Y025905D02*
X039935Y025905D01*
X038554Y026355D02*
X038253Y026355D01*
X038253Y025905D01*
X038253Y026130D02*
X038404Y026130D01*
X038253Y027905D02*
X038554Y027905D01*
X038714Y027980D02*
X038789Y027905D01*
X038939Y027905D01*
X039014Y027980D01*
X039014Y028055D01*
X038939Y028130D01*
X038789Y028130D01*
X038714Y028205D01*
X038714Y028280D01*
X038789Y028355D01*
X038939Y028355D01*
X039014Y028280D01*
X039174Y028280D02*
X039174Y027980D01*
X039249Y027905D01*
X039399Y027905D01*
X039474Y027980D01*
X039635Y027905D02*
X039935Y027905D01*
X039785Y027905D02*
X039785Y028355D01*
X039635Y028205D01*
X039474Y028280D02*
X039399Y028355D01*
X039249Y028355D01*
X039174Y028280D01*
X038554Y028355D02*
X038253Y028355D01*
X038253Y027905D01*
X038253Y028130D02*
X038404Y028130D01*
X035767Y031375D02*
X035467Y031375D01*
X035617Y031375D02*
X035617Y031825D01*
X035467Y031675D01*
X035306Y031825D02*
X035006Y031825D01*
X035156Y031825D02*
X035156Y031375D01*
X034696Y031600D02*
X034546Y031600D01*
X034546Y031375D02*
X034546Y031825D01*
X034846Y031825D01*
X034386Y031825D02*
X034085Y031825D01*
X034085Y031375D01*
X034386Y031375D01*
X034236Y031600D02*
X034085Y031600D01*
X033925Y031375D02*
X033625Y031375D01*
X033625Y031825D01*
X039700Y015825D02*
X039625Y015750D01*
X039625Y015675D01*
X039700Y015600D01*
X039850Y015600D01*
X039925Y015525D01*
X039925Y015450D01*
X039850Y015375D01*
X039700Y015375D01*
X039625Y015450D01*
X039700Y015825D02*
X039850Y015825D01*
X039925Y015750D01*
X040085Y015825D02*
X040311Y015825D01*
X040386Y015750D01*
X040386Y015600D01*
X040311Y015525D01*
X040085Y015525D01*
X040085Y015375D02*
X040085Y015825D01*
X040546Y015825D02*
X040696Y015825D01*
X040621Y015825D02*
X040621Y015375D01*
X040546Y015375D02*
X040696Y015375D01*
X040853Y015300D02*
X041153Y015300D01*
X041313Y015375D02*
X041313Y015825D01*
X041313Y015600D02*
X041613Y015600D01*
X041773Y015600D02*
X041924Y015600D01*
X041773Y015375D02*
X042074Y015375D01*
X042234Y015375D02*
X042234Y015675D01*
X042384Y015825D01*
X042534Y015675D01*
X042534Y015375D01*
X042694Y015375D02*
X042919Y015375D01*
X042995Y015450D01*
X042995Y015750D01*
X042919Y015825D01*
X042694Y015825D01*
X042694Y015375D01*
X042534Y015600D02*
X042234Y015600D01*
X042074Y015825D02*
X041773Y015825D01*
X041773Y015375D01*
X041613Y015375D02*
X041613Y015825D01*
X043155Y015750D02*
X043230Y015825D01*
X043380Y015825D01*
X043455Y015750D01*
X043455Y015675D01*
X043155Y015375D01*
X043455Y015375D01*
D12*
X039600Y014850D02*
X039600Y014350D01*
X039350Y014100D01*
X037850Y014100D01*
X037600Y013850D01*
X037600Y013350D01*
X037850Y013100D01*
X039350Y013100D01*
X039600Y012850D01*
X039600Y012350D01*
X039350Y012100D01*
X039600Y011850D01*
X039600Y011350D01*
X039350Y011100D01*
X037850Y011100D01*
X037600Y011350D01*
X037600Y011850D01*
X037850Y012100D01*
X039350Y012100D01*
X039350Y013100D02*
X039600Y013350D01*
X039600Y013850D01*
X039350Y014100D01*
X039600Y014850D02*
X039350Y015100D01*
X037850Y015100D01*
X037600Y014850D01*
X037600Y014350D01*
X037850Y014100D01*
X037850Y013100D02*
X037600Y012850D01*
X037600Y012350D01*
X037850Y012100D01*
M02*
